HIERARCHY
ROOT Hips
{
	OFFSET -3.958830 18.904000 13.208200
	CHANNELS 6 Xposition Yposition Zposition Zrotation Yrotation Xrotation 
	JOINT LHipJoint
	{
		OFFSET 0.000000 0.000000 0.000000
		CHANNELS 3 Zrotation Yrotation Xrotation
		JOINT LeftUpLeg
		{
			OFFSET 1.800000 -1.400000 0.085000
			CHANNELS 3 Zrotation Yrotation Xrotation
			JOINT LeftLeg
			{
				OFFSET 2.215000 -6.000000 0.000000
				CHANNELS 3 Zrotation Yrotation Xrotation
				JOINT LeftFoot
				{
					OFFSET 2.500000 -6.900000 0.000000
					CHANNELS 3 Zrotation Yrotation Xrotation
					JOINT LeftToeBase
					{
						OFFSET 0.200000 -0.500000 1.950000
						CHANNELS 3 Zrotation Yrotation Xrotation
						End Site
						{
							OFFSET 0.000000 0.000000 0.000000
						}
					}
				}
			}
		}
	}
	JOINT RHipJoint
	{
		OFFSET 0.000000 0.000000 0.000000
		CHANNELS 3 Zrotation Yrotation Xrotation
		JOINT RightUpLeg
		{
			OFFSET -1.800000 -1.400000 0.085000
			CHANNELS 3 Zrotation Yrotation Xrotation
			JOINT RightLeg
			{
				OFFSET -2.215000 -6.000000 0.000000
				CHANNELS 3 Zrotation Yrotation Xrotation
				JOINT RightFoot
				{
					OFFSET -2.500000 -6.900000 0.000000
					CHANNELS 3 Zrotation Yrotation Xrotation
					JOINT RightToeBase
					{
						OFFSET -0.200000 -0.500000 1.950000
						CHANNELS 3 Zrotation Yrotation Xrotation
						End Site
						{
							OFFSET 0.000000 0.000000 0.000000
						}
					}
				}
			}
		}
	}
	JOINT LowerBack
	{
		OFFSET 0.000000 0.000000 0.000000
		CHANNELS 3 Zrotation Yrotation Xrotation
		JOINT Spine
		{
			OFFSET -0.087000 1.940000 -0.288900
			CHANNELS 3 Zrotation Yrotation Xrotation
			JOINT Spine1
			{
				OFFSET 0.000000 1.950000 0.060000
				CHANNELS 3 Zrotation Yrotation Xrotation
				JOINT Neck
				{
					OFFSET 0.000000 0.000000 0.000000
					CHANNELS 3 Zrotation Yrotation Xrotation
					JOINT Neck1
					{
						OFFSET 0.000000 1.600000 0.340000
						CHANNELS 3 Zrotation Yrotation Xrotation
						JOINT Head
						{
							OFFSET 0.000000 1.667000 -0.240000
							CHANNELS 3 Zrotation Yrotation Xrotation
							End Site
							{
								OFFSET 0.000000 0.000000 0.000000
							}
						}
					}
				}
				JOINT LeftShoulder
				{
					OFFSET 0.000000 0.000000 0.000000
					CHANNELS 3 Zrotation Yrotation Xrotation
					JOINT LeftArm
					{
						OFFSET 2.700000 1.550000 -0.730000
						CHANNELS 3 Zrotation Yrotation Xrotation
						JOINT LeftForeArm
						{
							OFFSET 5.450000 0.000000 0.000000
							CHANNELS 3 Zrotation Yrotation Xrotation
							JOINT LeftHand
							{
								OFFSET 3.450000 0.000000 0.000000
								CHANNELS 3 Zrotation Yrotation Xrotation
								JOINT LeftHandIndex1
								{
									OFFSET 0.750000 0.000000 0.000000
									CHANNELS 3 Zrotation Yrotation Xrotation
									End Site
									{
										OFFSET 0.000000 0.000000 0.000000
									}
								}
							}
						}
					}
				}
				JOINT RightShoulder
				{
					OFFSET 0.000000 0.000000 0.000000
					CHANNELS 3 Zrotation Yrotation Xrotation
					JOINT RightArm
					{
						OFFSET -2.700000 1.550000 -0.730000
						CHANNELS 3 Zrotation Yrotation Xrotation
						JOINT RightForeArm
						{
							OFFSET -5.450000 0.000000 0.000000
							CHANNELS 3 Zrotation Yrotation Xrotation
							JOINT RightHand
							{
								OFFSET -3.450000 0.000000 0.000000
								CHANNELS 3 Zrotation Yrotation Xrotation
								JOINT RightHandIndex1
								{
									OFFSET -0.750000 0.000000 0.000000
									CHANNELS 3 Zrotation Yrotation Xrotation
									End Site
									{
										OFFSET 0.000000 0.000000 0.000000
									}
								}
							}
						}
					}
				}
			}
		}
	}
}
MOTION
Frames: 6
Frame Time: 0.016667
0.351670 16.861530 -1.056910 -4.077524 -3.290242 2.940655 -14.895362 12.704089 2.883463 1.470981 -0.203272 -3.708537 -6.848362 4.446629 4.300858 -0.548210 4.201712 3.542601 0.496410 0.016370 0.238130 18.653720 -10.978617 3.063343 0.385688 -0.460155 -4.276947 6.170253 -4.556542 3.861116 -0.621417 -3.780457 3.380398 0.029760 0.498300 0.422520 -4.488942 -0.445227 -7.270509 13.370047 0.698117 2.743292 -6.259035 0.760440 8.813628 3.450962 -2.271798 -10.956726 -5.530650 3.933343 39.403095 -2.030230 1.902520 -10.350140 -32.850703 -18.616899 7.011962 -48.195669 -7.071598 -1.368007 -11.953932 -20.567924 -0.349863 -3.760996 2.841924 0.778140 0.251670 -0.016790 0.403980 25.854513 21.700413 8.520869 54.574706 12.051491 -1.371078 10.932883 18.800311 0.574355 1.813557 -1.318038 -0.249530 0.369280 0.026950 -0.241010 
0.351640 16.863110 -1.057210 -4.071794 -3.191009 2.891921 -14.900334 12.715671 2.883807 1.448811 -0.201526 -3.696699 -6.746557 4.433363 4.337911 -0.551329 4.196301 3.542497 0.497680 0.015970 0.240800 18.647600 -10.974947 3.066323 0.413348 -0.469704 -4.209424 6.111995 -4.553282 3.845505 -0.624369 -3.780496 3.380257 0.028740 0.494540 0.424810 -4.473459 -0.469099 -7.278684 13.285829 0.661062 2.780215 -6.193051 0.720039 8.830322 3.470350 -2.205346 -11.010130 -5.430356 3.918238 39.589458 -2.098410 1.952790 -10.386600 -32.903224 -18.730825 7.074110 -48.183094 -7.030577 -1.396861 -11.871748 -20.580993 -0.369253 -3.758171 2.841856 0.782570 0.250230 -0.013210 0.403240 25.879052 21.768755 8.541578 54.507807 12.049211 -1.371338 10.904946 18.767248 0.578750 1.812458 -1.315908 -0.248880 0.367250 0.026770 -0.243430 
0.352490 16.863290 -1.059020 -4.113470 -3.010174 2.869223 -14.902940 12.714108 2.877349 1.458782 -0.205599 -3.681462 -6.613473 4.401167 4.280672 -0.558074 4.193028 3.544259 0.496390 0.013420 0.240430 18.648420 -10.968948 3.067273 0.516655 -0.479194 -4.143954 6.011360 -4.536075 3.806967 -0.622906 -3.785223 3.376989 0.031080 0.498180 0.425940 -4.473014 -0.475142 -7.270786 13.295364 0.564606 2.732193 -6.187899 0.608198 8.975292 3.481689 -2.163352 -11.014346 -5.322142 3.945900 39.479843 -2.117880 2.001790 -10.273000 -32.779482 -18.860867 7.125222 -48.247677 -7.141217 -1.361241 -11.808658 -20.564949 -0.386625 -3.764428 2.843284 0.780030 0.254880 -0.017660 0.401750 25.743126 21.837118 8.514871 54.505647 12.248735 -1.253368 10.899727 18.651038 0.579517 1.812172 -1.318743 -0.251760 0.366960 0.029370 -0.244970 
0.355020 16.863750 -1.062630 -4.193006 -2.818723 2.838377 -14.904769 12.716333 2.870464 1.480245 -0.218499 -3.687208 -6.424817 4.355483 4.228209 -0.568924 4.186548 3.549631 0.503210 0.013680 0.249710 18.648835 -10.962477 3.070759 0.626056 -0.482913 -4.089721 6.001951 -4.536063 3.799907 -0.625924 -3.791652 3.373588 0.034810 0.499370 0.429640 -4.473277 -0.486775 -7.267426 13.369299 0.461372 2.727452 -6.141334 0.485241 9.142032 3.508437 -2.129374 -11.046629 -5.241721 3.939239 39.382948 -2.249880 2.054830 -10.246890 -32.688700 -19.064451 7.188524 -48.328348 -7.303520 -1.306999 -11.722543 -20.513680 -0.414819 -3.766088 2.844774 0.783700 0.257460 -0.018400 0.404550 25.610052 21.983243 8.522639 54.395477 12.425429 -1.165895 10.907245 18.560451 0.581730 1.809470 -1.324056 -0.255270 0.366960 0.025840 -0.249200 
0.355820 16.864440 -1.066990 -4.142900 -2.674944 2.811414 -14.914340 12.724712 2.870809 1.401927 -0.221723 -3.721652 -6.311141 4.332646 4.241642 -0.573014 4.174604 3.557520 0.507560 0.018160 0.256330 18.639370 -10.956664 3.069557 0.595515 -0.484289 -4.066972 5.985739 -4.528742 3.783018 -0.627184 -3.792580 3.373418 0.039300 0.499300 0.426670 -4.447350 -0.511852 -7.270217 13.179670 0.390082 2.762354 -6.029661 0.411736 9.251553 3.512282 -2.062990 -11.085874 -5.113577 3.920701 39.337448 -2.366540 2.139100 -10.210540 -32.629370 -19.241479 7.249408 -48.276678 -7.392816 -1.275409 -11.796510 -20.482912 -0.402685 -3.762604 2.843405 0.784240 0.257770 -0.017510 0.408340 25.570339 22.112615 8.534706 54.289128 12.545943 -1.123416 10.870843 18.552398 0.573527 1.810395 -1.327336 -0.259030 0.370280 0.019000 -0.250210 
0.354570 16.864800 -1.071850 -4.019429 -2.600764 2.782284 -14.928797 12.736371 2.872805 1.307085 -0.223202 -3.779921 -6.280556 4.339532 4.355624 -0.578192 4.174837 3.561716 0.507970 0.016270 0.261650 18.623372 -10.955504 3.063178 0.490359 -0.472872 -4.105612 5.971568 -4.529211 3.839088 -0.623228 -3.793563 3.374135 0.042030 0.502080 0.424890 -4.403897 -0.535355 -7.271317 12.813658 0.364918 2.798913 -5.878556 0.390470 9.360755 3.521048 -1.933622 -11.129495 -4.861663 3.867567 39.271971 -2.585060 2.262810 -10.024310 -32.509498 -19.435075 7.323198 -48.204864 -7.467904 -1.246287 -11.871482 -20.464464 -0.390530 -3.764848 2.841092 0.783350 0.262600 -0.020340 0.410580 25.475778 22.242689 8.532461 54.263753 12.724262 -1.040930 10.840466 18.524534 0.565936 1.809868 -1.331698 -0.265190 0.372550 0.014950 -0.253160 
